<?xml version="1.0" standalone="no"?>
<!DOCTYPE svg PUBLIC "-//W3C//DTD SVG 20010904//EN"
 "http://www.w3.org/TR/2001/REC-SVG-20010904/DTD/svg10.dtd">
<svg version="1.0" xmlns="http://www.w3.org/2000/svg"
 width="200.000000pt" height="200.000000pt" viewBox="0 0 200.000000 200.000000"
 preserveAspectRatio="xMidYMid meet">

<g transform="translate(0.000000,200.000000) scale(0.100000,-0.100000)"
fill="#000000" stroke="none">
<path d="M275 1898 c-54 -27 -83 -55 -108 -103 -22 -40 -22 -41 -22 -800 0
-727 1 -762 19 -790 59 -94 121 -129 216 -123 117 6 193 79 211 202 5 33 9
154 9 269 l0 207 400 0 400 0 0 -240 c0 -216 2 -244 20 -294 24 -62 78 -117
135 -136 57 -19 146 -9 192 22 65 43 97 99 105 187 9 104 9 1251 -1 1379 -7
92 -11 106 -38 145 -41 56 -119 97 -184 97 -85 0 -152 -40 -202 -120 -21 -33
-22 -51 -28 -300 -4 -146 -7 -266 -8 -267 0 -2 -178 -3 -394 -3 l-394 0 -6
264 c-6 290 -10 308 -74 368 -63 60 -172 76 -248 36z m143 -79 c45 -15 85 -72
85 -121 0 -48 -41 -104 -96 -131 -34 -17 -41 -18 -75 -4 -45 17 -102 88 -102
125 0 15 11 47 23 72 32 62 94 84 165 59z m1275 0 c31 -14 71 -89 71 -133 0
-28 -8 -45 -39 -76 -21 -22 -54 -45 -72 -51 -29 -9 -39 -7 -78 16 -47 27 -85
84 -85 128 0 13 10 39 23 58 39 59 121 85 180 58z m-1383 -344 c54 -17 57 -17
120 3 36 11 69 17 73 13 4 -4 6 -63 5 -132 l-3 -124 -115 -12 c-63 -7 -124
-14 -135 -15 -19 -3 -20 3 -23 146 -2 117 0 147 10 143 7 -2 38 -12 68 -22z
m1258 0 c51 -16 57 -16 115 0 33 9 67 19 74 22 10 4 13 -21 13 -120 0 -69 -4
-137 -9 -150 -9 -23 -13 -24 -48 -16 -21 5 -80 12 -130 15 l-93 7 0 135 c0
103 3 133 13 130 6 -3 36 -13 65 -23z m-1113 -376 c19 -17 39 -45 43 -63 22
-81 -52 -176 -137 -176 -27 0 -43 10 -82 49 -56 55 -62 86 -29 151 27 54 55
70 117 70 44 0 58 -5 88 -31z m945 -104 l0 -135 -400 0 -400 0 0 135 0 135
400 0 400 0 0 -135z m314 112 c12 -13 31 -44 41 -70 21 -57 11 -91 -41 -137
-63 -55 -114 -52 -175 9 -94 94 -37 221 99 221 42 0 58 -5 76 -23z m-1384
-331 c30 -9 83 -16 117 -16 l63 0 0 -79 c0 -43 -3 -98 -6 -122 l-6 -44 -132 1
-131 2 -3 142 -3 142 23 -5 c13 -3 48 -13 78 -21z m1440 -105 c0 -71 -2 -135
-5 -143 -4 -10 -36 -13 -138 -12 l-132 2 -3 119 -3 120 83 6 c46 3 101 12 123
20 77 30 75 33 75 -112z m-1344 -247 c103 -49 101 -183 -4 -242 -51 -28 -69
-28 -114 3 -78 53 -100 137 -51 196 48 56 108 72 169 43z m1258 2 c41 -17 74
-58 82 -102 12 -63 -75 -164 -142 -164 -51 0 -134 95 -134 153 0 55 79 127
138 127 12 0 37 -6 56 -14z"/>
</g>
</svg>
