<?xml version="1.0" standalone="no"?>
<!DOCTYPE svg PUBLIC "-//W3C//DTD SVG 20010904//EN"
 "http://www.w3.org/TR/2001/REC-SVG-20010904/DTD/svg10.dtd">
<svg version="1.0" xmlns="http://www.w3.org/2000/svg"
 width="418.000000pt" height="200.000000pt" viewBox="0 0 418.000000 200.000000"
 preserveAspectRatio="xMidYMid meet">

<g transform="translate(0.000000,200.000000) scale(0.100000,-0.100000)"
fill="#ec2824" stroke="none">
<path d="M817 1903 c-13 -16 -107 -223 -107 -239 0 -3 -11 -29 -25 -57 -13
-29 -45 -106 -71 -172 -25 -66 -52 -133 -59 -150 -86 -195 -120 -246 -178
-264 -18 -5 -67 -15 -111 -21 -84 -11 -123 -25 -139 -51 -16 -26 1 -68 36 -90
27 -17 42 -19 97 -14 55 6 69 4 88 -12 20 -16 23 -30 27 -128 8 -181 19 -215
62 -201 25 8 79 103 99 174 22 74 69 157 104 182 39 28 170 63 277 74 55 6 62
5 68 -13 6 -19 -16 -165 -35 -231 -5 -19 -10 -55 -10 -79 0 -37 6 -49 39 -82
21 -22 46 -39 55 -39 30 0 63 74 146 335 39 125 78 236 90 260 9 19 41 100 95
240 13 33 35 84 49 112 14 29 26 56 26 61 0 4 8 23 19 42 26 50 90 212 97 248
10 49 -3 80 -45 107 -30 20 -43 24 -62 16 -52 -19 -116 -146 -270 -536 -99
-250 -119 -299 -127 -307 -12 -12 -303 -32 -347 -24 -20 4 -35 13 -35 20 0 12
32 95 115 296 12 30 35 82 50 115 15 33 38 85 52 115 14 30 42 90 64 133 53
104 51 118 -13 162 -58 39 -97 44 -121 18z"/>
<path d="M1603 1478 c-17 -18 -45 -59 -62 -91 -63 -121 -147 -413 -172 -602
-24 -183 14 -295 100 -295 63 0 107 37 173 145 17 28 33 44 35 38 3 -7 -7 -50
-22 -95 -23 -73 -85 -394 -85 -440 0 -10 13 -32 29 -50 l29 -33 26 24 c29 27
83 184 111 321 9 47 21 90 25 95 4 6 13 35 20 65 17 79 74 263 132 425 60 169
106 313 121 377 9 39 8 50 -7 73 -27 41 -62 31 -108 -30 -51 -66 -121 -184
-193 -325 -163 -321 -204 -385 -227 -362 -10 10 -6 39 21 144 18 73 39 146 47
163 24 56 94 298 106 366 9 59 9 72 -6 94 -23 34 -56 32 -93 -7z"/>
<path d="M2378 1487 c-30 -14 -111 -87 -146 -132 -92 -118 -202 -437 -202
-585 0 -133 89 -254 208 -281 118 -26 225 120 328 449 27 83 58 164 69 178
l21 26 32 -82 c18 -45 41 -94 52 -108 28 -35 25 -60 -15 -122 -43 -67 -44 -96
-4 -171 37 -68 33 -89 -14 -89 -59 0 -168 -100 -195 -179 -28 -81 -7 -170 51
-214 68 -50 103 -60 206 -55 85 4 105 8 172 41 83 40 186 133 220 198 35 69
20 134 -48 209 -40 45 -218 199 -239 207 -7 2 -15 11 -18 19 -4 9 9 18 44 28
124 37 207 108 316 272 40 62 81 115 90 118 46 18 43 -30 -21 -304 -45 -197
-47 -262 -11 -323 32 -56 70 -87 107 -87 34 0 79 42 133 125 45 68 76 105 88
105 4 0 11 -18 14 -39 13 -78 61 -128 132 -138 33 -4 44 -1 73 25 72 63 282
492 241 492 -14 0 -46 -40 -97 -120 -135 -213 -162 -236 -152 -127 5 54 70
277 97 332 19 38 80 240 80 265 0 72 -87 90 -172 34 -43 -27 -66 -30 -74 -9
-11 28 -69 55 -118 55 -69 0 -111 -21 -135 -68 -26 -51 -67 -81 -124 -88 -69
-10 -136 12 -228 73 -104 69 -146 85 -192 72 -33 -9 -99 -71 -226 -214 -29
-33 -55 -55 -57 -49 -3 5 -24 41 -48 80 -115 179 -161 215 -238 181z m669
-197 c34 -114 34 -189 -1 -257 -29 -59 -58 -83 -98 -83 -62 0 -74 87 -30 210
44 120 87 220 96 217 5 -2 20 -41 33 -87z m694 64 c24 -29 -6 -115 -116 -335
-58 -117 -114 -224 -125 -239 -11 -16 -20 -31 -20 -36 0 -12 -50 -74 -61 -74
-34 0 50 328 121 476 11 22 20 45 20 50 0 25 83 140 112 156 41 22 52 22 69 2z
m-1343 -141 c68 -97 72 -175 16 -309 -68 -167 -152 -285 -190 -270 -42 16 10
308 91 512 41 104 51 112 83 67z m504 -698 c54 -47 108 -125 108 -159 0 -32
-39 -84 -72 -95 -104 -36 -258 28 -258 107 0 17 10 48 22 69 28 49 105 123
128 123 10 0 42 -20 72 -45z"/>
</g>
</svg>